<?xml version="1.0" encoding="utf-8"?>
<!-- Generator: Adobe Illustrator 25.4.0, SVG Export Plug-In . SVG Version: 6.00 Build 0)  -->
<svg version="1.1" id="레이어_1" xmlns="http://www.w3.org/2000/svg" xmlns:xlink="http://www.w3.org/1999/xlink" x="0px"
	 y="0px" viewBox="0 0 425.2 62.1" style="enable-background:new 0 0 425.2 62.1;" xml:space="preserve">
<style type="text/css">
	.st0{fill:#FFB41E;}
	.st1{fill:#55555A;}
	.st2{fill:#B8C306;}
</style>
<g>
	<path class="st0" d="M13,36.2l18.9-5.7c4.9-1.8,11.4-6,11.4-12.4l0,0C43.3,8.1,35.2,0,25.2,0h-5.4C8.9,0,0,8.9,0,19.8v16.1
		c0,9.8,8,17.7,17.8,17.7h6.6c8.9,0,17.6-6.7,17.6-16.1H30.5c0,4-3.3,7.3-7.3,7.3h-5.3c-3.6,0-6.5-2.9-6.4-6.5
		C11.4,37.3,12.1,36.5,13,36.2z M11.4,27.7v-10c0-4.8,3.9-8.8,8.8-8.8H24c4.4,0,7.9,3.5,7.9,7.9l0,0c0,2.8-1.8,5.3-4.5,6.1
		L11.4,27.7z"/>
	<path class="st1" d="M114.7,23.7c0-3.4,2.8-6.8,6.2-6.8h3.4c2.8,0,5.9,1.8,5.9,4.8c0,0.8-0.6,2-1.3,2.2l-15.4,4.9l0,0
		c-4.2,1.5-9.7,5.1-9.7,10.3v1.8c0,8.3,8.2,12.6,16.7,12.6h3.3c9.3,0,16.8-7.4,16.8-16.5V23.7c0-8.2-6.8-14.2-15.1-14.2h-5.6
		c-7.6,0-14.9,4.9-14.9,14.2H114.7z M130.1,37.6c0,4-3.8,8-7.9,8h-1.9c-3.7,0-6.2-1.9-6.2-5.6c0-2.3,1-3.7,3.3-4.5l12.7-4V37.6z"/>
	<path class="st1" d="M95.6,12.5c-2.9-1.9-6.7-3-11-3c-4.2,0-8.1,1.2-11,3l0,0c-2.9-1.9-6.7-3-11-3c-8.9,0-16,5-16,11.2v0v31.8h10.1
		V31.1V20.7v0h0v0c0-2,2.6-3.6,5.9-3.6s5.9,1.6,5.9,3.6v0v10.4v21.3h10.1V31.1V20.7v0v0c0,0,0,0,0,0c0-2,2.6-3.6,5.9-3.6
		c3.3,0,5.9,1.6,5.9,3.6v0v10.4v16c0,3,2.4,5.4,5.4,5.4h4.8V31.1V20.7v0C100.7,17.5,98.8,14.5,95.6,12.5z"/>
	<path class="st1" d="M144.4,52.5h10.1V22.8c0-3.1,2.5-5.7,5.6-5.7c0,0,0.1,0,0.1,0c3.6,0,4.7,0.8,4.7,0.8v-7.9c0,0-3.9-0.7-8.8-0.7
		c-0.9,0-1.9,0-2.9,0.1c-4.9,0.2-8.9,4.2-8.9,9.2V52.5z"/>
	<path class="st1" d="M181.8,18.5c2.8,0,5.1-2.3,5.1-5.1v-3h-8.9V6c0-2.8-2.3-5.1-5.1-5.1h-5.1v43.4c0,4.9,3.9,9,8.9,9.2
		c1,0,2,0.1,2.9,0.1c4.9,0,7.3-1.1,7.3-1.1v-7.6c0,0-2.4,1-4.1,1c-1.3,0-1.6,0-2.4-0.2c-1.3-0.4-2.4-1.4-2.4-2.9V18.5H181.8z"/>
	<path class="st0" d="M218.1,39.1h1.2h2.4h4.4c0.1-0.6,0.1-1.3,0.1-2c0-8.8-4.1-15.9-14.8-15.9c-10.7,0-15.1,7.1-15.1,15.9
		c0,8.8,4.7,15.9,14.8,15.9c7.9,0,12.6-4.4,14.3-10.5h-7.1c-1.2,2.7-3.4,3.8-6.6,3.8c-4.3,0-7.1-3.4-7.1-7.2h4.6H218.1z M204.4,33.9
		c0.7-3.8,2.8-6.5,6.8-6.5c4,0,6,2.7,6.7,6.5H204.4z"/>
	<path class="st0" d="M274.5,39.1h1.2h2.4h4.4c0.1-0.6,0.1-1.3,0.1-2c0-8.8-4.1-15.9-14.8-15.9s-15.1,7.1-15.1,15.9
		c0,8.8,4.7,15.9,14.8,15.9c7.9,0,12.6-4.4,14.3-10.5h-7.1c-1.2,2.7-3.4,3.8-6.6,3.8c-4.3,0-7.1-3.4-7.1-7.2h4.6H274.5z M260.8,33.9
		c0.7-3.8,2.8-6.5,6.8-6.5c4,0,6,2.7,6.7,6.5H260.8z"/>
	<polygon class="st0" points="244.6,51.8 254.3,21.9 245.5,21.9 239.6,40 233.7,21.9 224.9,21.9 234.7,51.8 	"/>
	<path class="st0" d="M301.8,20.8c-4.8,0-8.6,2.8-8.6,6.3v-5.4h-8.4v30.1h8.4V35.1c0-1.5,0.7-3,1.8-4.1c1.4-1.4,3.6-2.3,6.1-2.3
		c0.9,0,1.8,0.1,2.7,0.4V21C303.1,20.9,302.5,20.8,301.8,20.8z"/>
	<path class="st0" d="M324.4,53l11-31.4H327L320.2,41l-6.7-19.4h-8.4c0,0,10.3,28.5,10.3,30.1c0,1.6-0.1,1.6-1,2.5s-1.2,0.8-3.3,0.8
		c-2.1,0-3.7-0.4-3.7-0.4v7.1c0,0,2,0.4,5.3,0.4c3.2,0,5.9-0.5,7.7-2.4C322.4,57.9,324.4,53,324.4,53L324.4,53L324.4,53z"/>
	<path class="st0" d="M414.2,53l11-31.4h-8.4L410,41l-6.7-19.4h-8.4c0,0,10.3,28.5,10.3,30.1c0,1.6-0.1,1.6-1,2.5S403.1,55,401,55
		c-2.1,0-3.7-0.4-3.7-0.4v7.1c0,0,2,0.4,5.3,0.4c3.2,0,5.9-0.5,7.7-2.4C412.2,57.9,414.2,53,414.2,53L414.2,53L414.2,53z"/>
	<path class="st0" d="M355.5,10.5v14.2c-2.4-2.5-5.5-3.7-8.9-3.7c-7.4,0-13.3,6.8-13.3,15.6s6,16,13.3,16c3.4,0,6.5-1.5,8.9-4.1v3.3
		h8.4V10.5H355.5z M348.6,46.4c-3.8,0-6.9-4.4-6.9-9.8c0-5.4,3.1-9.4,6.9-9.4s6.9,4,6.9,9.4C355.5,42,352.4,46.4,348.6,46.4z"/>
	<path class="st0" d="M380.8,20.7c-7.5,0-13.7,4.2-13.7,9.3v1.1h8.4v-1.1c0-2.1,2.4-3.7,5.3-3.7c2.9,0,5.3,1.7,5.3,3.7l0,0
		c0,2.1-2.4,3.7-5.3,3.7l0,0c-0.2,0-0.3,0-0.5,0c-9,0-14.1,3-14.1,9.1c0,5.7,2.1,9.6,10.4,9.6c3.1,0,6.5-1.5,9.5-3.3v2.8h8.4v-22
		C394.5,24.9,388.3,20.7,380.8,20.7z M379.7,47c-3.4,0-5.2-1.7-5.2-4c0-2.5,2.1-4.3,5.7-4.3c3,0,5.7-1.7,5.7-1.7
		C386.1,42.5,386.1,47,379.7,47z"/>
	<path class="st2" d="M373.2,17.5c3.4-0.5,6.6-2.2,6.6-4.9c0-2.8-2.5-5.2-6.1-5.2c-3.6,0-7,3.1-7,5.9v6.2
		C366.7,19.4,369.9,18,373.2,17.5z"/>
</g>
</svg>
