<svg id="Layer_1" viewBox="0 0 64 64" xmlns="http://www.w3.org/2000/svg" data-name="Layer 1"><path d="m61 8.748h-7.255s-.008.002-.012.002h-2.613v-5.75c0-.552-.447-1-1-1h-36.25c-.553 0-1 .448-1 1v5.75h-2.612s-.008-.002-.012-.002h-7.244c-.553 0-1 .448-1 1v16.401c0 .552.447 1 1 1h2.628v27.381h-2.63c-.553 0-1 .447-1 1v5.47c0 .553.447 1 1 1h58c.553 0 1-.447 1-1v-5.47c0-.553-.447-1-1-1h-2.63v-27.381h2.63c.553 0 1-.448 1-1v-16.401c0-.552-.447-1-1-1zm-53.37 25.382h10.311v12.92h-10.311zm36.43 13.92v11.521h-11.06v-25.44h11.06v13.92zm-13.069 0v11.521h-11.05v-25.44h11.05v13.92zm15.069-13.92h10.311v12.92h-10.311zm10.311-2h-48.741v-4.98h48.74v4.98zm-37.871-13.18h5.25v6.2h-5.25zm12.5 0v6.2h-5.25v-6.2zm7.25 0v6.2h-5.25v-6.2zm7.25 0v6.2h-5.25v-6.2zm7.245-8.2v14.4h-5.245v-6.2h2.62c.553 0 1-.448 1-1v-7.2zm-37.875-6.75h34.25v12.95h-34.25zm-3.62 6.75h1.62v7.2c0 .552.447 1 1 1h2.63v6.2h-5.25zm-7.248-.002h5.244v14.402h-5.244zm3.628 38.302h10.311v5.48h-10.311zm-3.63 7.48h13.94v3.47h-13.94zm56 3.47h-13.94v-3.47h13.94zm-13.94-5.47v-5.48h10.311v5.48zm13.94-29.381h-5.25v-14.401h5.25v14.402z"/><path d="m35.097 48.728c.553 0 1-.447 1-1v-1.2c0-.553-.447-1-1-1s-1 .447-1 1v1.2c0 .553.447 1 1 1z"/><path d="m28.903 48.728c.553 0 1-.447 1-1v-1.2c0-.553-.447-1-1-1s-1 .447-1 1v1.2c0 .553.447 1 1 1z"/></svg>