<svg id="Layer_1" enable-background="new 0 0 66 66" height="512" viewBox="0 0 66 66" width="512" xmlns="http://www.w3.org/2000/svg"><g><path d="m61.74 1h-57.48c-1.79 0-3.24 1.45-3.24 3.23v40.79c0 1.78 1.45 3.23 3.23 3.23h16.13l-7.1 15.28h-4.61c-.4 0-.73.33-.73.73s.32.74.73.74h48.67c.4 0 .73-.33.73-.73s-.33-.73-.73-.73h-4.62l-7.1-15.28h16.13c1.78 0 3.23-1.45 3.23-3.23v-40.8c0-1.78-1.45-3.23-3.24-3.23zm-24.64 47.25 7.1 15.28h-22.4l7.1-15.28zm-15.1 0h5.28l-7.1 15.28h-5.28zm29.1 15.28h-5.28l-7.1-15.28h5.28zm12.41-18.51c0 .97-.79 1.77-1.77 1.77h-57.48c-.97 0-1.77-.79-1.77-1.77v-40.79c0-.97.79-1.77 1.77-1.77h57.49c.97 0 1.77.79 1.77 1.77v40.79z"/><path d="m59.19 24.57h-5.1c-.69 0-1.25.56-1.25 1.25v17.03c0 .69.56 1.25 1.25 1.25h5.1c.69 0 1.25-.56 1.25-1.25v-17.03c0-.69-.56-1.25-1.25-1.25zm-.22 18.06h-4.67v-16.6h4.67z"/><path d="m49.06 34.03h-5.1c-.69 0-1.25.56-1.25 1.25v7.57c0 .69.56 1.25 1.25 1.25h5.1c.69 0 1.25-.56 1.25-1.25v-7.57c0-.69-.56-1.25-1.25-1.25zm-.22 8.6h-4.67v-7.14h4.67z"/><path d="m38.93 29.03h-5.1c-.69 0-1.25.56-1.25 1.25v12.57c0 .69.56 1.25 1.25 1.25h5.1c.69 0 1.25-.56 1.25-1.25v-12.57c0-.69-.56-1.25-1.25-1.25zm-.22 13.6h-4.67v-12.13h4.67z"/><path d="m28.8 37.19h-5.1c-.69 0-1.25.56-1.25 1.25v4.41c0 .69.56 1.25 1.25 1.25h5.1c.69 0 1.25-.56 1.25-1.25v-4.41c0-.69-.56-1.25-1.25-1.25zm-.22 5.44h-4.67v-3.98h4.67z"/><path d="m28.06 26.8c-.43-.27-.93-.43-1.47-.43-1.54 0-2.8 1.26-2.8 2.81s1.25 2.8 2.8 2.8 2.8-1.26 2.8-2.8c0-.47-.13-.91-.34-1.3l5.55-5.25c.48.4 1.1.65 1.77.65.76 0 1.45-.31 1.96-.8l5.58 4.57c-.13.32-.21.68-.21 1.05 0 1.55 1.25 2.8 2.8 2.8s2.8-1.26 2.8-2.8c0-.48-.13-.92-.35-1.32l6.45-6.55c.37.18.78.29 1.22.29 1.55 0 2.81-1.26 2.81-2.8 0-1.55-1.26-2.81-2.81-2.81-1.54 0-2.8 1.26-2.8 2.81 0 .57.17 1.1.47 1.55l-6.35 6.44c-.43-.26-.92-.42-1.45-.42-.64 0-1.23.23-1.7.59l-5.73-4.69c.06-.23.1-.46.1-.71 0-1.55-1.26-2.81-2.8-2.81s-2.8 1.26-2.8 2.81c0 .33.07.64.17.94zm-1.48 3.71c-.73 0-1.33-.6-1.33-1.34s.6-1.34 1.33-1.34c.38 0 .72.16.97.42.01.01.01.01.01.02 0 0 .01 0 .01.01.22.24.35.55.35.9 0 .73-.6 1.33-1.34 1.33zm30.05-14.14c.74 0 1.34.6 1.34 1.34s-.6 1.34-1.34 1.34c-.73 0-1.33-.6-1.33-1.34 0-.73.6-1.34 1.33-1.34zm-8.79 11.72c0 .74-.6 1.34-1.34 1.34-.73 0-1.33-.6-1.33-1.34s.6-1.34 1.33-1.34c.74 0 1.34.6 1.34 1.34zm-11.47-8.95c.74 0 1.34.6 1.34 1.34s-.6 1.34-1.34 1.34c-.73 0-1.33-.6-1.33-1.34s.6-1.34 1.33-1.34z"/><path d="m17.92 42.63h-10.54c-.4 0-.73.33-.73.73s.33.73.73.73h10.54c.4 0 .73-.33.73-.73s-.33-.73-.73-.73z"/><path d="m17.92 38.97h-10.54c-.4 0-.73.33-.73.73s.33.73.73.73h10.54c.4 0 .73-.33.73-.73 0-.41-.33-.73-.73-.73z"/><path d="m17.92 35.3h-10.54c-.4 0-.73.33-.73.73s.33.73.73.73h10.54c.4 0 .73-.33.73-.73s-.33-.73-.73-.73z"/><path d="m15.23 29.05c5.87 0 10.64-4.77 10.64-10.64 0-1.54-.32-3.03-.96-4.42-.17-.37-.61-.53-.97-.36-.37.17-.53.6-.36.97.55 1.2.83 2.48.83 3.81 0 5.06-4.12 9.18-9.18 9.18s-9.18-4.12-9.18-9.18 4.12-9.18 9.18-9.18c1.19 0 2.34.22 3.43.66.37.15.8-.03.95-.41s-.03-.8-.41-.95c-1.26-.51-2.6-.77-3.98-.77-5.87 0-10.64 4.77-10.64 10.64s4.78 10.65 10.65 10.65z"/><path d="m17.22 13.79c.37.16.8-.01.96-.38s-.01-.8-.38-.96c-.81-.35-1.68-.53-2.57-.53-3.58 0-6.49 2.91-6.49 6.49s2.91 6.49 6.49 6.49 6.49-2.91 6.49-6.49c0-.81-.15-1.59-.44-2.34-.15-.38-.57-.57-.95-.42s-.56.57-.42.95c.22.58.34 1.19.34 1.81 0 2.77-2.25 5.02-5.02 5.02s-5.02-2.25-5.02-5.02 2.25-5.02 5.02-5.02c.69-.01 1.36.13 1.99.4z"/><path d="m14.67 16.96c.38-.15.57-.57.42-.95s-.57-.57-.95-.42c-1.16.44-1.93 1.57-1.93 2.81 0 1.66 1.35 3.01 3.01 3.01 1.33 0 2.48-.85 2.88-2.12.12-.39-.1-.8-.48-.92-.39-.12-.8.1-.92.48-.2.65-.8 1.09-1.48 1.09-.85 0-1.55-.69-1.55-1.55.01-.62.41-1.2 1-1.43z"/><path d="m20.97 11.62-6.26 6.26c-.29.29-.29.75 0 1.04.14.14.33.21.52.21s.38-.07.52-.21l6.18-6.18 2.81.16h.06c.29 0 .56-.12.77-.33l2.43-2.55c.29-.3.37-.73.22-1.12s-.51-.65-.92-.67l-1.86-.11-.21-2.02c-.04-.42-.31-.76-.71-.89-.39-.13-.82-.03-1.11.27l-2.43 2.55c-.21.22-.32.53-.29.84zm2.89-4.49.18 1.76c.04.36.33.64.69.66l1.6.09-1.7 1.78-2.23-.13-.24-2.39z"/><path d="m39 8.16h19.7c.4 0 .73-.33.73-.73s-.33-.73-.73-.73h-19.7c-.4 0-.73.33-.73.73s.33.73.73.73z"/><path d="m39 11.7h19.7c.4 0 .73-.33.73-.73s-.33-.73-.73-.73h-19.7c-.4 0-.73.33-.73.73s.33.73.73.73z"/></g></svg>