<svg id="Layer_1" enable-background="new 0 0 494.875 494.875" height="512" viewBox="0 0 494.875 494.875" width="512" xmlns="http://www.w3.org/2000/svg"><g><g><path d="m342.125 238.59v-15h-10.35c-3.593-40.787-36.169-73.363-76.956-76.956v-8.885h-15v8.885c-40.787 3.593-73.363 36.169-76.956 76.956h-10.113v15h9.761 169.614zm-164.214-15c3.752-34.979 33.448-62.307 69.407-62.307s65.655 27.327 69.407 62.307z"/><path d="m52.75 272.92h90v15h-90z"/><path d="m52.75 332.92h90v15h-90z"/><path d="m52.75 392.92h90v15h-90z"/><path d="m218.125 257.982h-45v45h45zm-15 30h-15v-15h15z"/><path d="m218.125 317.92h-45v45h45zm-15 30h-15v-15h15z"/><path d="m173.125 422.92h45v-45h-45zm15-30h15v15h-15z"/><path d="m276.75 272.92h90v15h-90z"/><path d="m276.75 332.92h90v15h-90z"/><path d="m276.75 392.92h90v15h-90z"/><path d="m442.125 257.982h-45v45h45zm-15 30h-15v-15h15z"/><path d="m397.125 362.92h45v-45h-45zm15-30h15v15h-15z"/><path d="m397.125 422.92h45v-45h-45zm15-30h15v15h-15z"/><path d="m467.375 28.492h-439.875c-15.164 0-27.5 12.337-27.5 27.5v62.563 320.328c0 15.163 12.336 27.5 27.5 27.5h324.938v-15h-324.938c-6.893 0-12.5-5.607-12.5-12.5v-320.328h142.438v-15h-142.438v-47.563c0-6.893 5.607-12.5 12.5-12.5h439.875c6.893 0 12.5 5.607 12.5 12.5v47.563h-307.312v15h307.313v320.328c0 6.893-5.607 12.5-12.5 12.5h-100.626v15h100.625c15.164 0 27.5-12.337 27.5-27.5v-320.328-62.563c0-15.163-12.336-27.5-27.5-27.5z"/></g><g><path d="m112.375 80.555h-14.875v-15h14.875zm-29.875 0h-15v-15h15zm-30 0h-15v-15h15z"/></g></g></svg>