<?xml version="1.0" encoding="utf-8"?>
<!-- Generator: Adobe Illustrator 25.4.0, SVG Export Plug-In . SVG Version: 6.00 Build 0)  -->
<svg version="1.1" id="레이어_1" xmlns="http://www.w3.org/2000/svg" xmlns:xlink="http://www.w3.org/1999/xlink" x="0px"
	 y="0px" viewBox="0 0 188.6 103.8" style="enable-background:new 0 0 188.6 103.8;" xml:space="preserve">
<style type="text/css">
	.st0{fill:#FFFFFF;}
</style>
<g>
	<path class="st0" d="M18,84.9h1h2h3.6c0-0.5,0.1-1.1,0.1-1.6c0-7.2-3.4-13.1-12.2-13.1C3.6,70.2,0,76.1,0,83.3s3.9,13.1,12.2,13.1
		c6.5,0,10.4-3.6,11.8-8.6h-5.8c-1,2.2-2.8,3.1-5.5,3.1c-3.5,0-5.8-2.8-5.8-5.9h3.8H18z M6.8,80.6c0.6-3.1,2.3-5.4,5.6-5.4
		s4.9,2.2,5.5,5.4H6.8z"/>
	<path class="st0" d="M64.5,84.9h1h2H71c0-0.5,0.1-1.1,0.1-1.6c0-7.2-3.4-13.1-12.2-13.1c-8.8,0-12.4,5.9-12.4,13.1
		s3.9,13.1,12.2,13.1c6.5,0,10.4-3.6,11.8-8.6h-5.8c-1,2.2-2.8,3.1-5.5,3.1c-3.5,0-5.8-2.8-5.8-5.9h3.8H64.5z M53.2,80.6
		c0.6-3.1,2.3-5.4,5.6-5.4c3.3,0,4.9,2.2,5.5,5.4H53.2z"/>
	<polygon class="st0" points="39.8,95.4 47.9,70.8 40.6,70.8 35.7,85.6 30.9,70.8 23.6,70.8 31.7,95.4 	"/>
	<path class="st0" d="M87,69.8c-3.9,0-7.1,2.3-7.1,5.2v-4.5h-6.9v24.8h6.9V81.6c0-1.3,0.6-2.4,1.5-3.3c1.2-1.1,3-1.9,5-1.9
		c0.8,0,1.5,0.1,2.2,0.3V70C88,69.9,87.5,69.8,87,69.8z"/>
	<path class="st0" d="M105.6,96.4l9.1-25.9h-6.9l-5.6,16l-5.5-16h-6.9c0,0,8.5,23.5,8.5,24.8c0,1.3-0.1,1.3-0.8,2
		c-0.7,0.7-1,0.7-2.7,0.7c-1.7,0-3-0.3-3-0.3v5.9c0,0,1.7,0.3,4.3,0.3s4.9-0.4,6.4-1.9C104,100.4,105.6,96.4,105.6,96.4L105.6,96.4
		L105.6,96.4z"/>
	<path class="st0" d="M179.5,96.4l9.1-25.9h-6.9l-5.6,16l-5.5-16h-6.9c0,0,8.5,23.5,8.5,24.8c0,1.3-0.1,1.3-0.8,2
		c-0.7,0.7-1,0.7-2.7,0.7c-1.7,0-3-0.3-3-0.3v5.9c0,0,1.7,0.3,4.3,0.3c2.7,0,4.9-0.4,6.4-1.9C177.9,100.4,179.5,96.4,179.5,96.4
		L179.5,96.4L179.5,96.4z"/>
	<path class="st0" d="M131.2,61.4v11.7c-1.9-2.1-4.5-3.1-7.3-3.1c-6.1,0-11,5.6-11,12.9c0,7.3,4.9,13.2,11,13.2
		c2.8,0,5.4-1.3,7.3-3.4v2.7h6.9v-34H131.2z M125.5,90.9c-3.1,0-5.6-3.6-5.6-8.1s2.5-7.8,5.6-7.8c3.1,0,5.6,3.3,5.6,7.8
		S128.6,90.9,125.5,90.9z"/>
	<path class="st0" d="M152,69.8c-6.2,0-11.3,3.4-11.3,7.7v0.9h6.9v-0.9c0-1.7,1.9-3.1,4.4-3.1c2.4,0,4.4,1.4,4.4,3.1l0,0
		c0,1.7-1.9,3.1-4.3,3.1l0,0c-0.1,0-0.3,0-0.4,0c-7.4,0-11.6,2.4-11.6,7.5c0,4.7,1.7,7.9,8.5,7.9c2.5,0,5.3-1.2,7.8-2.7v2.3h6.9
		V77.5C163.3,73.2,158.2,69.8,152,69.8z M151.2,91.4c-2.8,0-4.2-1.4-4.2-3.3c0-2.1,1.7-3.5,4.7-3.5c2.5,0,4.7-1.4,4.7-1.4
		C156.4,87.7,156.4,91.4,151.2,91.4z"/>
	<path class="st0" d="M145.8,67.1c2.8-0.4,5.4-1.8,5.4-4.1c0-2.3-2.1-4.3-5.1-4.3s-5.8,2.6-5.8,4.9v5.1
		C140.4,68.7,143,67.5,145.8,67.1z"/>
	<path class="st0" d="M13,36.2l18.9-5.7c4.9-1.8,11.4-6,11.4-12.4l0,0C43.3,8.1,35.2,0,25.2,0h-5.4C8.9,0,0,8.9,0,19.8v16.1
		c0,9.8,8,17.7,17.8,17.7h6.6c8.9,0,17.6-6.7,17.6-16.1H30.5c0,4-3.3,7.3-7.3,7.3h-5.3c-3.6,0-6.5-2.9-6.4-6.5
		C11.4,37.3,12.1,36.5,13,36.2z M11.4,27.7v-10c0-4.8,3.9-8.8,8.8-8.8H24c4.4,0,7.9,3.5,7.9,7.9l0,0c0,2.8-1.8,5.3-4.5,6.1
		L11.4,27.7z"/>
	<path class="st0" d="M114.7,23.7c0-3.4,2.8-6.8,6.2-6.8h3.4c2.8,0,5.9,1.8,5.9,4.8c0,0.8-0.6,2-1.3,2.2l-15.4,4.9h0
		c-4.2,1.5-9.7,5.1-9.7,10.3v1.8c0,8.3,8.2,12.6,16.7,12.6h3.3c9.3,0,16.8-7.4,16.8-16.5V23.7c0-8.2-6.8-14.2-15.1-14.2h-5.6
		c-7.6,0-14.9,4.9-14.9,14.2H114.7z M130.1,37.6c0,4-3.8,8-7.9,8h-1.9c-3.7,0-6.2-1.9-6.2-5.6c0-2.3,1-3.7,3.3-4.5l12.7-4V37.6z"/>
	<path class="st0" d="M95.6,12.5c-2.9-1.9-6.7-3-11-3c-4.2,0-8.1,1.2-11,3l0,0c-2.9-1.9-6.7-3-11-3c-8.9,0-16,5-16,11.2v0v31.8h10.1
		V31.1V20.7v0h0v0c0-2,2.6-3.6,5.9-3.6c3.3,0,5.9,1.6,5.9,3.6v0v10.4v21.3h10.1V31.1V20.7v0v0c0,0,0,0,0,0c0-2,2.6-3.6,5.9-3.6
		c3.3,0,5.9,1.6,5.9,3.6v0v10.4v16c0,3,2.4,5.4,5.4,5.4h4.8V31.1V20.7v0C100.7,17.5,98.8,14.5,95.6,12.5z"/>
	<path class="st0" d="M144.4,52.5h10.1V22.8c0-3.1,2.5-5.7,5.6-5.7c0,0,0.1,0,0.1,0c3.6,0,4.7,0.8,4.7,0.8v-7.9c0,0-3.9-0.7-8.8-0.7
		c-0.9,0-1.9,0-2.9,0.1c-4.9,0.2-8.9,4.2-8.9,9.2V52.5z"/>
	<path class="st0" d="M181.8,18.5c2.8,0,5.1-2.3,5.1-5.1v-3h-8.9V6c0-2.8-2.3-5.1-5.1-5.1h-5.1v43.4c0,4.9,3.9,9,8.9,9.2
		c1,0,2,0.1,2.9,0.1c4.9,0,7.3-1.1,7.3-1.1v-7.6c0,0-2.4,1-4.1,1c-1.3,0-1.6,0-2.4-0.2c-1.3-0.4-2.4-1.4-2.4-2.9V18.5H181.8z"/>
</g>
</svg>
