<svg height="512" viewBox="0 0 64 64" width="512" xmlns="http://www.w3.org/2000/svg"><g id="u"><g><path d="m18 24h-2c-.552 0-1 .447-1 1v8c0 .553.448 1 1 1h2c1.654 0 3-1.346 3-3 0-.768-.29-1.469-.766-2 .476-.531.766-1.232.766-2 0-1.654-1.346-3-3-3zm0 8h-1v-2h1c.551 0 1 .448 1 1s-.449 1-1 1zm0-4h-1v-2h1c.551 0 1 .448 1 1s-.449 1-1 1z"/><path d="m28 27c0-1.654-1.346-3-3-3h-2c-.552 0-1 .447-1 1v9h2v-4h.559c.929 1.062 1.441 2.404 1.441 3.828v.172h2v-.172c0-1.572-.46-3.072-1.316-4.348.793-.54 1.316-1.45 1.316-2.48zm-4-1h1c.551 0 1 .448 1 1s-.449 1-1 1h-1z"/><path d="m32 24c-1.654 0-3 1.346-3 3v7h2v-3h2v3h2v-7c0-1.654-1.346-3-3-3zm-1 5v-2c0-.552.449-1 1-1s1 .448 1 1v2z"/><path d="m40 28.764-2.105-4.211c-.208-.415-.668-.631-1.125-.526-.451.107-.77.51-.77.974v9h2v-4.764l2.105 4.211c.172.345.522.553.895.553.076 0 .153-.009.23-.026.451-.107.77-.51.77-.974v-9h-2v4.764z"/><path d="m46 24h-2c-.552 0-1 .447-1 1v8c0 .553.448 1 1 1h2c1.654 0 3-1.346 3-3v-4c0-1.654-1.346-3-3-3zm1 7c0 .552-.449 1-1 1h-1v-6h1c.551 0 1 .448 1 1z"/><path d="m58 14c.552 0 1-.447 1-1v-2h3v-2h-3v-2c0-.553-.448-1-1-1h-2v-4h-2v4h-2c-.552 0-1 .447-1 1v2h-38v-2c0-.553-.448-1-1-1h-2v-4h-2v4h-2c-.552 0-1 .447-1 1v2h-3v2h3v2c0 .553.448 1 1 1h2v36h-2c-.552 0-1 .447-1 1v2h-3v2h3v2c0 .553.448 1 1 1h2v4h2v-4h2c.552 0 1-.447 1-1v-2h20.586l4.707 4.707c.195.195.451.293.707.293s.512-.098.707-.293l4.707-4.707h6.586v2c0 .553.448 1 1 1h2v4h2v-4h2c.552 0 1-.447 1-1v-2h3v-2h-3v-2c0-.553-.448-1-1-1h-2v-36zm-5-6h4v4h-4zm-46 0h4v4h-4zm4 48h-4v-4h4zm19.586-9c1.18 0 2.288-.459 3.122-1.293s1.292-1.942 1.292-3.121v-.586h-2v.586c0 .293-.058.576-.158.842l-4.976-4.976 9.162 1.41c.169 2.561 1.091 5.009 2.645 7.05l-4.76 4.76c-2.041-1.554-4.49-2.476-7.051-2.645l-1.409-9.161 4.975 4.975c-.267.099-.549.158-.842.158h-.586v2h.586zm8.414 10.586-3.586-3.586 6.586-6.586 3.586 3.586zm18-1.586h-4v-4h4zm-3-6h-2c-.552 0-1 .447-1 1v2h-4.586l1.293-1.293c.391-.391.391-1.023 0-1.414l-5-5c-.391-.391-1.023-.391-1.414 0l-.192.192c-1.36-1.88-2.101-4.145-2.101-6.485 0-.493-.36-.913-.848-.988l-13-2c-.312-.047-.633.056-.859.281-.225.226-.33.544-.281.859l2 13c.075.487.495.848.988.848 2.279 0 4.483.708 6.333 2h-20.333v-2c0-.553-.448-1-1-1h-2v-36h2c.552 0 1-.447 1-1v-2h38v2c0 .553.448 1 1 1h2z"/></g></g></svg>