<?xml version="1.0" encoding="UTF-8"?>
<svg xmlns="http://www.w3.org/2000/svg" width="512" height="512" viewBox="0 0 128 128"><g><path d="M62.25,76.94V85.5a1.75,1.75,0,0,0,3.5,0V76.94a1.75,1.75,0,0,0-3.5,0Z"/><path d="M102.5,45h2.25V85.5a1.75,1.75,0,0,0,3.5,0V43.25a1.75,1.75,0,0,0-1.75-1.75h-4a1.75,1.75,0,0,0,0,3.5Z"/><path d="M21.5,87.25a1.75,1.75,0,0,0,1.75-1.75V45H25.5a1.75,1.75,0,0,0,0-3.5h-4a1.75,1.75,0,0,0-1.75,1.75V85.5A1.75,1.75,0,0,0,21.5,87.25Z"/><path d="M46.75,14.25h6a1.75,1.75,0,0,0,0-3.5h-6a1.75,1.75,0,0,0,0,3.5Z"/><path d="M34.219,90.884a1.749,1.749,0,0,0-1.638-1.134H10.419a1.749,1.749,0,0,0-1.638,1.134l-3.919,10.41A1.75,1.75,0,0,0,6.5,103.66h.63V121.5a1.75,1.75,0,0,0,1.75,1.75H34.12a1.75,1.75,0,0,0,1.75-1.75V103.66h.63a1.75,1.75,0,0,0,1.638-2.366ZM11.63,93.25H31.37l2.6,6.91H9.029Zm7.12,26.5v-8.5h5.5v8.5Zm13.62,0H27.75V109.5A1.75,1.75,0,0,0,26,107.75H17a1.75,1.75,0,0,0-1.75,1.75v10.25H10.63V103.66H32.37Z"/><path d="M76.719,90.884a1.749,1.749,0,0,0-1.638-1.134H52.919a1.749,1.749,0,0,0-1.638,1.134l-3.919,10.41A1.75,1.75,0,0,0,49,103.66h.63V121.5a1.75,1.75,0,0,0,1.75,1.75H76.62a1.75,1.75,0,0,0,1.75-1.75V103.66H79a1.75,1.75,0,0,0,1.638-2.366ZM54.13,93.25H73.87l2.6,6.91H51.529Zm7.12,26.5v-8.5h5.5v8.5Zm13.62,0H70.25V109.5a1.75,1.75,0,0,0-1.75-1.75h-9a1.75,1.75,0,0,0-1.75,1.75v10.25H53.13V103.66H74.87Z"/><path d="M123.138,101.294l-3.919-10.41a1.749,1.749,0,0,0-1.638-1.134H95.419a1.749,1.749,0,0,0-1.638,1.134l-3.919,10.41A1.75,1.75,0,0,0,91.5,103.66h.63V121.5a1.75,1.75,0,0,0,1.75,1.75h25.24a1.75,1.75,0,0,0,1.75-1.75V103.66h.63a1.75,1.75,0,0,0,1.638-2.366ZM96.63,93.25h19.74l2.6,6.91H94.029Zm7.12,26.5v-8.5h5.5v8.5Zm13.62,0h-4.62V109.5a1.75,1.75,0,0,0-1.75-1.75h-9a1.75,1.75,0,0,0-1.75,1.75v10.25H95.63V103.66h21.74Z"/><path d="M79,41.529a1.751,1.751,0,0,0-1.75-1.75H50.75a1.75,1.75,0,0,0,0,3.5h26.5A1.75,1.75,0,0,0,79,41.529Z"/><path d="M89.25,47.031h-12a1.75,1.75,0,0,0-1.75,1.75v9a1.75,1.75,0,0,0,1.75,1.75h12A1.75,1.75,0,0,0,91,57.781v-9A1.75,1.75,0,0,0,89.25,47.031Zm-1.75,9H79v-5.5h8.5Z"/><path d="M50.75,47.031h-12A1.75,1.75,0,0,0,37,48.781v9a1.75,1.75,0,0,0,1.75,1.75h12a1.75,1.75,0,0,0,1.75-1.75v-9A1.75,1.75,0,0,0,50.75,47.031Zm-1.75,9H40.5v-5.5H49Z"/><path d="M29.75,34.853V63.194H28.5a1.751,1.751,0,0,0-1.75,1.75v6a1.75,1.75,0,0,0,1.75,1.75h71a1.75,1.75,0,0,0,1.75-1.75v-6a1.751,1.751,0,0,0-1.75-1.75H98.25V34.853a6.818,6.818,0,0,0,3-5.647V25.277a1.758,1.758,0,0,0-.109-.609L94.171,5.891A1.749,1.749,0,0,0,92.53,4.75H35.47a1.749,1.749,0,0,0-1.641,1.141l-6.97,18.777a1.758,1.758,0,0,0-.109.609v3.929A6.818,6.818,0,0,0,29.75,34.853Zm7.143-7.826v2.179a3.322,3.322,0,0,1-6.643,0V27.027Zm10.143,0v2.179a3.322,3.322,0,0,1-6.643,0V27.027Zm10.143,0v2.179a3.322,3.322,0,0,1-6.643,0V27.027Zm10.142,0v2.179a3.321,3.321,0,1,1-6.642,0V27.027Zm10.143,0v2.179a3.322,3.322,0,0,1-6.643,0V27.027Zm10.143,0v2.179a3.322,3.322,0,0,1-6.643,0V27.027Zm10.143,0v2.179a3.322,3.322,0,0,1-6.643,0V27.027Zm0,42.167H30.25v-2.5h67.5Zm-29.5-6h-8.5V50.53h8.5Zm26.5,0h-23V48.78A1.75,1.75,0,0,0,70,47.03H58a1.75,1.75,0,0,0-1.75,1.75V63.194h-23V36.011c.107,0,.213.016.321.016a6.8,6.8,0,0,0,5.072-2.275,6.79,6.79,0,0,0,10.143,0,6.79,6.79,0,0,0,10.143,0,6.789,6.789,0,0,0,10.142,0,6.79,6.79,0,0,0,10.143,0,6.79,6.79,0,0,0,10.143,0,6.8,6.8,0,0,0,5.072,2.275c.108,0,.214-.011.321-.016ZM36.687,8.25H91.313l5.671,15.277H31.016Z"/></g></svg>
