<svg id="Layer_1" height="512" viewBox="0 0 1000 1000" width="512" xmlns="http://www.w3.org/2000/svg" data-name="Layer 1"><path d="m553.51 916a117.3 117.3 0 0 1 -39.5-7 41.85 41.85 0 0 0 -28 0c-18.36 6.53-36.78 8.54-54.77 6-34.15-4.89-56.09-24.71-77.31-43.87-16.78-15.15-30.22-31.34-47.94-57.73-25.65-38.18-45.9-68.34-57.47-103.26-11.95-36.14-16.13-78.83-11.52-117.22 6.09-50.36 27-90.89 60.6-117.23a160.06 160.06 0 0 1 55.6-27.95 163 163 0 0 1 88.37.37c5.62 1.58 11.36 3 17 4.16l.49.1a201.61 201.61 0 0 0 81.73 0l.45-.09c5.72-1.19 11.46-2.59 17.08-4.17a163 163 0 0 1 88.37-.37 160.06 160.06 0 0 1 55.6 27.95c33.63 26.31 54.59 66.87 60.71 117.23 4.64 38.39.46 81.08-11.47 117.14-11.6 34.94-31.85 65.08-57.53 103.26-17.73 26.39-31.17 42.58-47.95 57.73-21.22 19.16-43.16 39-77.31 43.87a108.37 108.37 0 0 1 -15.23 1.08zm-157.19-442.18a126.51 126.51 0 0 0 -34.39 4.71 128.27 128.27 0 0 0 -44.54 22.34c-60.82 47.73-56.39 145.23-38.51 199.13 10.19 30.77 28.42 57.91 53.65 95.48 16.15 24 28.15 38.57 42.83 51.82 19.27 17.41 35.91 32.44 60.4 35.94 12.79 1.83 26.08.34 39.5-4.44a74 74 0 0 1 49.48 0c13.42 4.78 26.71 6.27 39.5 4.44 24.49-3.5 41.13-18.53 60.4-35.94 14.68-13.25 26.68-27.78 42.83-51.82 25.23-37.57 43.46-64.71 53.65-95.48 17.84-53.9 22.31-151.4-38.51-199.13a128.23 128.23 0 0 0 -44.55-22.34 131 131 0 0 0 -71 .39c-6.32 1.77-12.78 3.35-19.19 4.68l-.53.11a233.2 233.2 0 0 1 -94.65 0l-.56-.11c-6.39-1.33-12.85-2.91-19.17-4.68a135.68 135.68 0 0 0 -36.64-5.1z"/><path d="m509.34 488.33a16 16 0 0 1 -16-15.28 10.06 10.06 0 0 0 -.32-2 134.56 134.56 0 0 1 34-127.67 9.92 9.92 0 0 0 0-13.86 9 9 0 0 0 -13 0 152.57 152.57 0 0 0 -39.02 69.16 155.87 155.87 0 0 0 -2.26 66.67 16 16 0 1 1 -31.47 5.81 188.24 188.24 0 0 1 2.73-80.42 184.6 184.6 0 0 1 47.27-83.74 41 41 0 0 1 58.58 0 42 42 0 0 1 0 58.76 102.44 102.44 0 0 0 -25.85 97.24 41.36 41.36 0 0 1 1.31 8.61 16 16 0 0 1 -15.26 16.7z"/><path d="m417.13 416.38c-15.07 0-31.39-2.92-45.36-12.17-37.28-24.68-39.68-82.41-39.76-84.85a16 16 0 0 1 10.25-15.48c2.28-.88 56.36-21.23 93.64 3.45s39.68 82.41 39.77 84.86a16 16 0 0 1 -10.25 15.48c-1.42.55-23.12 8.71-48.29 8.71zm-51.79-86c2.6 15.36 9.33 37.41 24.1 47.18 15.58 10.31 39 7 52.89 3.67-2.6-15.38-9.33-37.41-24.09-47.18-15.59-10.35-38.98-7.05-52.9-3.7z"/><path d="m816.17 735.18h-85.17a16 16 0 0 1 0-32h85.15a19.48 19.48 0 0 0 19.46-19.47v-548.24a19.48 19.48 0 0 0 -19.44-19.47h-632.34a19.48 19.48 0 0 0 -19.46 19.47v548.24a19.48 19.48 0 0 0 19.46 19.47h85.17a16 16 0 0 1 0 32h-85.17a51.53 51.53 0 0 1 -51.46-51.47v-548.24a51.53 51.53 0 0 1 51.46-51.47h632.34a51.53 51.53 0 0 1 51.46 51.47v548.24a51.53 51.53 0 0 1 -51.46 51.47z"/><path d="m851.63 252.52h-703.26a16 16 0 0 1 0-32h703.26a16 16 0 1 1 0 32z"/><path d="m225.34 184.26h-8a16 16 0 0 1 0-32h8a16 16 0 1 1 0 32z"/><path d="m277.47 184.26h-8a16 16 0 0 1 0-32h8a16 16 0 0 1 0 32z"/><path d="m329.59 184.26h-8a16 16 0 0 1 0-32h8a16 16 0 0 1 0 32z"/><path d="m726.15 184.26h-8a16 16 0 0 1 0-32h8a16 16 0 0 1 0 32z"/><path d="m782.62 184.26h-8a16 16 0 0 1 0-32h8a16 16 0 0 1 0 32z"/><path d="m421.15 798.36h-47.91a16 16 0 0 1 -16-16v-121.36a16 16 0 0 1 16-16h47.91a16 16 0 0 1 16 16v121.4a16 16 0 0 1 -16 15.96zm-31.91-32h15.91v-89.36h-15.91z"/><path d="m524 798.36h-48a16 16 0 0 1 -16-16v-172.89a16 16 0 0 1 16-16h48a16 16 0 0 1 16 16v172.89a16 16 0 0 1 -16 16zm-31.92-32h15.92v-140.89h-16z"/><path d="m626.76 798.36h-47.91a16 16 0 0 1 -16-16v-197.24a16 16 0 0 1 16-16h47.91a16 16 0 0 1 16 16v197.24a16 16 0 0 1 -16 16zm-31.91-32h15.91v-165.24h-15.91z"/><path d="m578.85 798.36h-157.7a16 16 0 0 1 0-32h157.7a16 16 0 0 1 0 32z"/></svg>