<svg width="21" height="21" viewBox="0 0 21 21" fill="none" xmlns="http://www.w3.org/2000/svg">
<path d="M15.6799 21C14.8154 21.0003 13.9659 20.7752 13.2155 20.3469L13.1097 20.2874C8.23063 17.5015 4.14875 13.5135 1.25398 8.70416L0.702148 7.78613C0.13695 6.84757 -0.097257 5.74719 0.0368512 4.66035C0.170959 3.5735 0.665665 2.56273 1.44213 1.78912L2.5416 0.691672C3.46553 -0.230557 4.96817 -0.230557 5.89126 0.691672L8.31363 3.10959C8.67819 3.47519 8.91345 3.94943 8.98377 4.46046C9.0541 4.9715 8.95566 5.49149 8.70336 5.94167L7.79287 7.55557C7.77374 7.58953 7.76625 7.6288 7.77156 7.6674C7.77687 7.70599 7.79468 7.7418 7.82227 7.76936L13.2155 13.1527C13.2435 13.1801 13.2797 13.1977 13.3187 13.2028C13.3576 13.208 13.3971 13.2004 13.4314 13.1812L15.0457 12.2732L15.0465 12.2723C15.4976 12.0208 16.0185 11.9227 16.5304 11.9929C17.0423 12.0631 17.5174 12.2977 17.8838 12.6614L20.3071 15.081C21.231 16.0032 21.231 17.5031 20.3071 18.4245L19.1589 19.5697C18.7016 20.0246 18.159 20.3851 17.562 20.6305C16.965 20.8759 16.3255 21.0015 15.6799 21ZM4.21643 1.67678C4.04005 1.67678 3.86366 1.74385 3.72927 1.87799L2.6298 2.97461C2.11876 3.48379 1.79315 4.14905 1.70486 4.86439C1.61658 5.57973 1.77068 6.30398 2.14264 6.92175L2.69447 7.83978C5.44034 12.4021 9.31224 16.1855 13.9404 18.8286L14.0462 18.8881C15.3279 19.62 16.9406 19.4129 17.9704 18.3834L19.1185 17.2381C19.1825 17.1743 19.2333 17.0985 19.268 17.015C19.3026 16.9316 19.3204 16.8422 19.3204 16.7519C19.3204 16.6616 19.3026 16.5721 19.268 16.4887C19.2333 16.4052 19.1825 16.3294 19.1185 16.2656L16.6953 13.846C16.5887 13.7402 16.4504 13.672 16.3014 13.6517C16.1524 13.6314 16.0008 13.6602 15.8697 13.7337L14.2553 14.6416C13.9014 14.8395 13.4924 14.9168 13.0905 14.8618C12.6886 14.8069 12.3155 14.6228 12.0278 14.3373L6.6346 8.954C6.3483 8.66718 6.16361 8.29492 6.10858 7.89378C6.05355 7.49263 6.13119 7.08452 6.32971 6.73143L7.2402 5.11837C7.31335 4.98744 7.34185 4.83631 7.32139 4.6878C7.30094 4.53928 7.23264 4.40144 7.12681 4.29507L4.7036 1.87799C4.63967 1.81409 4.56372 1.76342 4.48012 1.72889C4.39652 1.69436 4.30691 1.67665 4.21643 1.67678Z" fill="#312F3A"/>
</svg>
