<svg width="21" height="29" viewBox="0 0 21 29" fill="none" xmlns="http://www.w3.org/2000/svg">
<path d="M10.1482 28.5721L9.60456 27.9076C9.24213 27.4243 0 16.6117 0 10.1482C0 4.53045 4.59086 0 10.1482 0C15.7056 0 20.2964 4.59086 20.2964 10.1482C20.2964 16.6117 11.0543 27.4847 10.6919 27.9076L10.1482 28.5721ZM10.1482 1.38934C5.31573 1.38934 1.44975 5.31573 1.44975 10.0878C1.44975 15.1619 8.15482 23.8 10.1482 26.2766C12.1416 23.8 18.8467 15.2223 18.8467 10.0878C18.8467 5.31573 14.9807 1.38934 10.1482 1.38934Z" fill="#312F3A"/>
<path d="M10.1482 14.0142C8.034 14.0142 6.28223 12.2624 6.28223 10.1482C6.28223 8.034 8.034 6.28223 10.1482 6.28223C12.2624 6.28223 14.0142 8.034 14.0142 10.1482C14.0142 12.2624 12.2624 14.0142 10.1482 14.0142ZM10.1482 7.73197C8.81928 7.73197 7.73197 8.81928 7.73197 10.1482C7.73197 11.4771 8.81928 12.5645 10.1482 12.5645C11.4771 12.5645 12.5645 11.4771 12.5645 10.1482C12.5645 8.81928 11.4771 7.73197 10.1482 7.73197Z" fill="#312F3A"/>
</svg>
