<svg width="26" height="17" viewBox="0 0 26 17" fill="none" xmlns="http://www.w3.org/2000/svg">
<path d="M25.35 0H0.65C0.2925 0 0 0.283333 0 0.62963V16.3704C0 16.7167 0.2925 17 0.65 17H25.35C25.7075 17 26 16.7167 26 16.3704V0.62963C26 0.283333 25.7075 0 25.35 0ZM23.79 1.25926L13 11.7111L2.21 1.25926H23.79ZM1.3 2.14074L7.865 8.5L1.3 14.8593V2.14074ZM2.2425 15.7407L8.775 9.41296L12.545 13.0648C12.805 13.3167 13.195 13.3167 13.455 13.0648L17.225 9.41296L23.7575 15.7407H2.2425ZM24.7 14.8593L18.135 8.5L24.7 2.14074V14.8593Z" fill="#312F3A"/>
</svg>
