<?xml version="1.0" encoding="UTF-8"?>
<svg xmlns="http://www.w3.org/2000/svg" version="1.1" viewBox="0 0 378.37 43.1">
  <defs>
    <style>
      .cls-1 {
        fill: #231f20;
      }
    </style>
  </defs>
  <!-- Generator: Adobe Illustrator 28.6.0, SVG Export Plug-In . SVG Version: 1.2.0 Build 709)  -->
  <g>
    <g id="Layer_1">
      <g>
        <path class="cls-1" d="M9.55,5.88c0-.28.15-.45.46-.51,1.17-.18,2.64-.35,4.41-.48,1.77-.14,4.01-.21,6.71-.21,2.31,0,4.29.23,5.95.69,1.66.46,3.03,1.06,4.11,1.8,1.08.8,2,1.88,2.77,3.25.77,1.37,1.15,2.91,1.15,4.64,0,1.48-.27,2.91-.81,4.29-.54,1.38-1.31,2.52-2.33,3.41-1.35,1.14-2.98,1.99-4.89,2.56-1.91.57-4.03.85-6.37.85h-.92c-.31,0-.58-.02-.83-.05v9.41c0,.37-.17.55-.51.55h-8.35c-.37,0-.55-.18-.55-.55V5.88ZM18.96,18.71c.25.03.48.05.69.05h.97c1.48,0,2.69-.32,3.64-.95.95-.63,1.43-1.53,1.43-2.7,0-.95-.37-1.71-1.11-2.26-.74-.55-1.86-.83-3.37-.83h-1.34c-.37,0-.68.03-.92.09v6.6Z"/>
        <path class="cls-1" d="M45.26,28.77c-.28,1.17-.58,2.33-.9,3.48-.32,1.15-.62,2.3-.9,3.44-.06.28-.25.42-.55.42h-8.86c-.22,0-.37-.08-.46-.23-.09-.15-.11-.31-.05-.46l9.5-30.08c.06-.25.23-.37.51-.37h11.49c.28,0,.45.12.51.37l10.1,30.08c.06.15.05.31-.05.46-.09.15-.25.23-.46.23h-9.36c-.09,0-.19-.04-.3-.12-.11-.08-.18-.18-.21-.3l-2.17-6.92h-7.84ZM51.58,21.57c-.25-.77-.48-1.55-.69-2.33-.22-.78-.45-1.55-.69-2.28-.15-.49-.33-1.01-.53-1.57-.2-.55-.38-1.09-.53-1.61l.05.05c-.06-.21-.1-.35-.12-.39-.02-.05,0-.07.02-.07-.03-.09-.08-.21-.14-.37-.03.15-.07.34-.12.55-.05.22-.09.4-.12.55-.12.52-.25,1.02-.37,1.5-.12.48-.26.93-.42,1.36h.05c-.22.89-.42,1.66-.6,2.31-.18.65-.4,1.41-.65,2.31h4.84Z"/>
        <path class="cls-1" d="M70.4,36.1c-.34,0-.51-.18-.51-.55V5.52c0-.37.17-.55.51-.55h10.61c.15,0,.29.09.42.28l4.98,8.67c.71,1.26,1.41,2.59,2.12,3.99.71,1.4,1.37,2.79,1.98,4.17-.12-1.54-.19-2.98-.21-4.34-.02-1.35-.02-2.81-.02-4.38v-7.84c0-.37.17-.55.51-.55h7.84c.34,0,.51.18.51.55v30.03c0,.37-.17.55-.51.55h-9.27c-.18,0-.34-.09-.46-.28l-5.44-9.92c-.77-1.38-1.58-2.89-2.42-4.52-.85-1.63-1.67-3.29-2.47-4.98.06,1.85.11,3.68.14,5.51.03,1.83.05,3.67.05,5.51v8.12c0,.37-.17.55-.51.55h-7.84Z"/>
        <path class="cls-1" d="M140.66,34.58c.03.12,0,.24-.07.35-.08.11-.16.19-.25.25-.65.31-1.74.63-3.28.97-1.54.34-3.37.51-5.49.51-3.14,0-5.85-.42-8.14-1.27-2.29-.85-4.17-1.98-5.65-3.41-1.48-1.43-2.58-3.09-3.3-4.98-.72-1.89-1.08-3.88-1.08-5.97,0-2.71.49-5.09,1.48-7.15.98-2.06,2.32-3.79,4.01-5.19,1.69-1.4,3.66-2.45,5.9-3.16,2.24-.71,4.64-1.06,7.2-1.06,2.03,0,3.83.15,5.4.44,1.57.29,2.74.65,3.51,1.08.25.12.34.34.28.65l-1.75,6.5c-.06.15-.16.27-.3.35-.14.08-.28.09-.44.02-.74-.34-1.64-.62-2.7-.85-1.06-.23-2.28-.35-3.67-.35-1.2,0-2.34.16-3.41.48-1.08.32-2.02.82-2.84,1.5-.82.68-1.47,1.52-1.96,2.54-.49,1.01-.74,2.23-.74,3.64,0,2.43.79,4.41,2.38,5.95,1.58,1.54,3.85,2.31,6.8,2.31,1.14,0,2.27-.1,3.39-.3,1.12-.2,2.02-.44,2.7-.71.15-.06.3-.05.44.02.14.08.24.21.3.39l1.29,6.46Z"/>
        <path class="cls-1" d="M145.41,5.88c0-.28.15-.45.46-.51,1.17-.18,2.67-.35,4.5-.48,1.83-.14,3.9-.21,6.2-.21,2.61,0,4.8.2,6.55.6,1.75.4,3.23,1.03,4.43,1.89,1.05.74,1.87,1.69,2.47,2.86.6,1.17.9,2.55.9,4.15,0,.92-.15,1.78-.46,2.58-.31.8-.69,1.51-1.15,2.12-.46.62-.98,1.15-1.55,1.61-.57.46-1.13.82-1.68,1.06.8.52,1.47,1.23,2.01,2.12.54.89,1.01,1.91,1.41,3.05.25.71.48,1.45.71,2.24.23.78.45,1.56.67,2.33.25.86.48,1.69.69,2.49.21.8.4,1.32.55,1.57.09.18.09.35,0,.51-.09.15-.26.23-.51.23h-8.53c-.22,0-.39-.09-.51-.28-.25-.43-.57-1.21-.97-2.33-.4-1.12-.86-2.68-1.38-4.68-.22-.83-.45-1.5-.72-2.01-.26-.51-.56-.9-.9-1.18-.34-.28-.74-.47-1.2-.58-.46-.11-1-.16-1.61-.16h-.97v10.66c0,.37-.18.55-.55.55h-8.3c-.37,0-.55-.18-.55-.55V5.88ZM154.82,17.92h1.94c1.48,0,2.64-.28,3.48-.83.85-.55,1.27-1.31,1.27-2.26s-.35-1.71-1.06-2.19c-.71-.48-1.69-.72-2.95-.72h-1.71c-.4,0-.72.03-.97.09v5.9Z"/>
        <path class="cls-1" d="M184.23,35.43c-2.05-.81-3.78-1.93-5.19-3.34-1.42-1.41-2.5-3.09-3.25-5.03-.75-1.94-1.13-4.03-1.13-6.27,0-2.37.41-4.55,1.22-6.55.81-2,1.96-3.72,3.44-5.17,1.48-1.45,3.26-2.58,5.35-3.39,2.09-.81,4.41-1.22,6.97-1.22s4.96.4,7.03,1.2c2.08.8,3.83,1.91,5.26,3.32,1.43,1.41,2.52,3.09,3.28,5.03.75,1.94,1.13,4.06,1.13,6.37s-.4,4.54-1.2,6.53c-.8,1.98-1.95,3.7-3.44,5.14-1.49,1.45-3.3,2.58-5.42,3.39-2.12.81-4.51,1.22-7.15,1.22s-4.85-.41-6.9-1.22ZM194.33,28.4c.85-.43,1.56-1.02,2.14-1.78.58-.75,1.03-1.64,1.34-2.68.31-1.03.46-2.15.46-3.34s-.16-2.37-.48-3.41c-.32-1.05-.78-1.95-1.36-2.72-.58-.77-1.3-1.37-2.14-1.8-.85-.43-1.79-.65-2.84-.65s-1.99.22-2.84.65c-.85.43-1.56,1.03-2.15,1.8-.58.77-1.04,1.68-1.36,2.72-.32,1.05-.48,2.18-.48,3.41s.16,2.31.48,3.34c.32,1.03.78,1.92,1.36,2.68.58.75,1.3,1.35,2.15,1.78.85.43,1.79.65,2.84.65s2.04-.21,2.88-.65Z"/>
        <path class="cls-1" d="M213.87,27.06c.06-.18.16-.32.3-.39.14-.08.28-.07.44.02.98.49,2.21.95,3.69,1.38,1.48.43,3.06.65,4.75.65,2.46,0,3.69-.62,3.69-1.85,0-.89-1.54-1.77-4.61-2.63-1.29-.37-2.53-.84-3.71-1.41-1.18-.57-2.23-1.25-3.14-2.05-.91-.8-1.62-1.72-2.15-2.77-.52-1.04-.78-2.24-.78-3.6,0-1.45.31-2.78.92-3.99.62-1.21,1.5-2.27,2.65-3.16,1.15-.89,2.54-1.58,4.18-2.08,1.63-.49,3.46-.74,5.49-.74s3.93.15,5.42.46c1.49.31,2.82.72,3.99,1.25.31.12.42.34.32.65l-1.94,6.6c-.12.4-.37.52-.74.37-.71-.31-1.67-.64-2.88-.99-1.22-.35-2.65-.53-4.31-.53-1.08,0-1.91.13-2.49.39-.58.26-.88.65-.88,1.18,0,.62.45,1.1,1.34,1.45.89.35,2.28.82,4.15,1.41,3.04.95,5.3,2.21,6.76,3.78,1.46,1.57,2.19,3.55,2.19,5.95,0,1.32-.27,2.6-.81,3.83-.54,1.23-1.38,2.32-2.51,3.28-1.14.95-2.6,1.72-4.38,2.28-1.78.57-3.92.85-6.41.85-1.01,0-2.01-.06-3-.18-.98-.12-1.91-.29-2.79-.51-.88-.21-1.67-.45-2.38-.69-.71-.25-1.31-.49-1.8-.74-.12-.06-.22-.15-.28-.28-.06-.12-.08-.23-.05-.32l1.75-6.87Z"/>
        <path class="cls-1" d="M240.9,27.06c.06-.18.16-.32.3-.39.14-.08.28-.07.44.02.98.49,2.21.95,3.69,1.38,1.48.43,3.06.65,4.75.65,2.46,0,3.69-.62,3.69-1.85,0-.89-1.54-1.77-4.61-2.63-1.29-.37-2.53-.84-3.71-1.41-1.18-.57-2.23-1.25-3.14-2.05-.91-.8-1.62-1.72-2.14-2.77-.52-1.04-.78-2.24-.78-3.6,0-1.45.31-2.78.92-3.99.61-1.21,1.5-2.27,2.65-3.16,1.15-.89,2.54-1.58,4.17-2.08,1.63-.49,3.46-.74,5.49-.74s3.93.15,5.42.46c1.49.31,2.82.72,3.99,1.25.31.12.42.34.32.65l-1.94,6.6c-.12.4-.37.52-.74.37-.71-.31-1.67-.64-2.88-.99-1.22-.35-2.65-.53-4.31-.53-1.08,0-1.91.13-2.49.39-.58.26-.88.65-.88,1.18,0,.62.45,1.1,1.34,1.45.89.35,2.28.82,4.15,1.41,3.05.95,5.3,2.21,6.76,3.78,1.46,1.57,2.19,3.55,2.19,5.95,0,1.32-.27,2.6-.81,3.83-.54,1.23-1.38,2.32-2.51,3.28-1.14.95-2.6,1.72-4.38,2.28-1.78.57-3.92.85-6.41.85-1.01,0-2.01-.06-3-.18-.98-.12-1.91-.29-2.79-.51-.88-.21-1.67-.45-2.38-.69-.71-.25-1.31-.49-1.8-.74-.12-.06-.22-.15-.28-.28-.06-.12-.08-.23-.05-.32l1.75-6.87Z"/>
        <path class="cls-1" d="M289.41,35.34c.02.06,0,.12-.03.17-.04.05-.08.1-.13.13-.32.15-.86.31-1.63.48-.76.17-1.67.25-2.73.25-1.56,0-2.91-.21-4.05-.63-1.14-.42-2.07-.99-2.81-1.7-.73-.71-1.28-1.54-1.64-2.48-.36-.94-.54-1.93-.54-2.97,0-1.34.24-2.53.73-3.55.49-1.02,1.15-1.88,1.99-2.58.84-.7,1.82-1.22,2.93-1.57,1.12-.35,2.31-.53,3.58-.53,1.01,0,1.9.07,2.68.22.78.15,1.36.32,1.74.54.12.06.17.17.14.32l-.87,3.23c-.03.08-.08.13-.15.17-.07.04-.14.04-.22.01-.37-.17-.81-.31-1.34-.42-.53-.11-1.13-.17-1.82-.17-.6,0-1.16.08-1.7.24-.53.16-1,.41-1.41.74-.4.34-.73.76-.97,1.26-.24.5-.37,1.11-.37,1.81,0,1.21.39,2.19,1.18,2.96.79.76,1.91,1.15,3.38,1.15.56,0,1.13-.05,1.68-.15.56-.1,1-.22,1.34-.36.08-.03.15-.03.22.01.07.04.12.1.15.19l.64,3.21Z"/>
        <path class="cls-1" d="M294.9,35.77c-1.02-.4-1.88-.96-2.58-1.66-.7-.7-1.24-1.54-1.62-2.5-.37-.96-.56-2-.56-3.12,0-1.18.2-2.26.61-3.26.41-.99.97-1.85,1.71-2.57.73-.72,1.62-1.28,2.66-1.69,1.04-.4,2.19-.61,3.46-.61s2.46.2,3.5.6c1.03.4,1.9.95,2.61,1.65.71.7,1.25,1.54,1.63,2.5.37.96.56,2.02.56,3.16s-.2,2.26-.6,3.24c-.4.99-.97,1.84-1.71,2.56-.74.72-1.64,1.28-2.69,1.68-1.05.4-2.24.61-3.55.61s-2.41-.2-3.43-.61ZM299.92,32.27c.42-.21.78-.51,1.07-.88.29-.37.51-.82.66-1.33.15-.51.23-1.07.23-1.66s-.08-1.18-.24-1.7c-.16-.52-.39-.97-.68-1.35-.29-.38-.65-.68-1.07-.89-.42-.21-.89-.32-1.41-.32s-.99.11-1.41.32c-.42.21-.78.51-1.07.89-.29.38-.52.83-.68,1.35-.16.52-.24,1.09-.24,1.7s.08,1.15.24,1.66c.16.51.39.96.68,1.33.29.37.65.67,1.07.88.42.21.89.32,1.41.32s1.01-.11,1.43-.32Z"/>
        <path class="cls-1" d="M308.84,35.63c-.48-.5-.72-1.13-.72-1.89s.24-1.42.72-1.91c.48-.5,1.13-.75,1.94-.75s1.46.25,1.94.75c.48.5.72,1.13.72,1.91.02.76-.22,1.39-.71,1.89-.49.5-1.14.74-1.95.74s-1.46-.25-1.94-.74Z"/>
        <path class="cls-1" d="M314.42,38.65c-.09.02-.16-.02-.22-.09-.05-.08-.06-.16-.03-.25.81-2.28,1.4-4.56,1.76-6.85.03-.15.12-.23.25-.23l4.17-.21c.09,0,.16.03.22.09.05.06.06.15.03.25-.84,2.52-1.9,4.84-3.19,6.95-.02.03-.05.06-.09.09-.05.03-.08.05-.11.05l-2.8.21Z"/>
        <path class="cls-1" d="M322.63,20.9c0-.18.09-.27.27-.27h4.19c.17,0,.25.09.25.27v11.16h6.19c.18,0,.27.09.27.28v3.48c0,.18-.09.28-.27.28h-10.64c-.18,0-.27-.09-.27-.28v-14.92Z"/>
        <path class="cls-1" d="M335.83,24.57h-3.97c-.17,0-.25-.08-.25-.25v-3.42c0-.18.08-.27.25-.27h12.7c.18,0,.28.09.28.27v3.42c0,.17-.09.25-.28.25h-4.01v11.25c0,.18-.09.28-.27.28h-4.19c-.17,0-.25-.09-.25-.28v-11.25Z"/>
        <path class="cls-1" d="M346.83,21.09c0-.14.07-.22.21-.25.73-.12,1.56-.21,2.46-.26.91-.05,1.85-.08,2.83-.08.79,0,1.52.03,2.19.08.66.05,1.27.14,1.82.25.55.11,1.06.27,1.52.46.47.19.91.42,1.32.68.92.58,1.66,1.36,2.23,2.35.57.99.86,2.19.86,3.61,0,.78-.08,1.49-.23,2.14-.15.65-.36,1.24-.63,1.77-.27.53-.57.99-.92,1.39-.34.4-.7.74-1.07,1.03-.93.7-2.09,1.22-3.46,1.55-1.37.33-2.86.49-4.45.49-1.15,0-2.08-.03-2.8-.08-.72-.05-1.28-.12-1.7-.19-.14-.03-.21-.12-.21-.25v-14.67ZM351.56,32.5c.12.02.24.02.34.02h.34c.73.02,1.41-.06,2.02-.23.61-.17,1.14-.43,1.59-.79.45-.36.8-.82,1.05-1.38.25-.56.38-1.22.38-1.98s-.12-1.35-.35-1.86c-.24-.5-.56-.91-.96-1.23-.41-.31-.88-.53-1.43-.66-.55-.13-1.15-.19-1.79-.19-.55,0-.95.02-1.19.07v8.23Z"/>
        <path class="cls-1" d="M364.22,35.63c-.48-.5-.72-1.13-.72-1.89s.24-1.42.72-1.91c.48-.5,1.13-.75,1.94-.75s1.46.25,1.94.75c.48.5.72,1.13.72,1.91.02.76-.22,1.39-.71,1.89-.49.5-1.14.74-1.95.74s-1.46-.25-1.94-.74Z"/>
      </g>
    </g>
  </g>
</svg>